# MagicaVoxel @ Ephtracy

# group
o 

# material
mtllib tile 001.mtl
usemtl palette

# normals
vn -1 0 0
vn 1 0 0
vn 0 0 1
vn 0 0 -1
vn 0 -1 0
vn 0 1 0

# texcoords
vt 0.228516 0.5
vt 0.232422 0.5
vt 0.306641 0.5
vt 0.794922 0.5
vt 0.888672 0.5

# verts
v -0.5 0 0.5
v -0.5 0 0.2
v -0.5 0 0
v -0.5 0 -0.3
v -0.5 0 -0.4
v -0.5 0 -0.5
v -0.5 0.1 0.1
v -0.5 0.1 0
v -0.5 0.1 -0.2
v -0.5 0.1 -0.3
v -0.5 0.1 -0.4
v -0.5 0.1 -0.5
v -0.5 0.2 0.3
v -0.5 0.2 0.2
v -0.5 0.2 0.1
v -0.5 0.2 -0.2
v -0.5 0.2 -0.3
v -0.5 0.3 0.3
v -0.5 0.3 0.2
v -0.5 0.3 0.1
v -0.5 0.3 -0.2
v -0.5 0.3 -0.4
v -0.5 0.3 -0.5
v -0.5 0.4 0.5
v -0.5 0.4 0.4
v -0.5 0.4 0.2
v -0.5 0.4 0.1
v -0.5 0.4 0
v -0.5 0.4 -0.2
v -0.5 0.4 -0.3
v -0.5 0.5 0.5
v -0.5 0.5 0.4
v -0.5 0.5 0.3
v -0.5 0.5 0.1
v -0.5 0.5 0
v -0.5 0.5 -0.3
v -0.5 0.5 -0.4
v -0.5 0.6 0.4
v -0.5 0.6 0.3
v -0.5 0.6 0.1
v -0.5 0.6 -0.1
v -0.5 0.6 -0.2
v -0.5 0.7 0.4
v -0.5 0.7 0.3
v -0.5 0.7 0
v -0.5 0.7 -0.1
v -0.5 0.7 -0.2
v -0.5 0.7 -0.3
v -0.5 0.7 -0.4
v -0.5 0.7 -0.5
v -0.5 0.8 0.5
v -0.5 0.8 0.4
v -0.5 0.8 0.1
v -0.5 0.8 0
v -0.5 0.8 -0.3
v -0.5 0.8 -0.4
v -0.5 0.9 0.4
v -0.5 0.9 0.3
v -0.5 0.9 -0.3
v -0.5 0.9 -0.4
v -0.5 1 0.5
v -0.5 1 0.4
v -0.5 1 0.3
v -0.5 1 -0.3
v -0.5 1 -0.4
v -0.5 1 -0.5
v 0.5 0 0.5
v 0.5 0 -0.5
v 0.5 0.2 0.3
v 0.5 0.2 0.2
v 0.5 0.2 0
v 0.5 0.2 -0.1
v 0.5 0.2 -0.2
v 0.5 0.2 -0.4
v 0.5 0.3 0.3
v 0.5 0.3 0.2
v 0.5 0.3 0.1
v 0.5 0.3 0
v 0.5 0.3 -0.1
v 0.5 0.3 -0.3
v 0.5 0.3 -0.4
v 0.5 0.4 0.5
v 0.5 0.4 0.4
v 0.5 0.4 0.2
v 0.5 0.4 0.1
v 0.5 0.4 0
v 0.5 0.4 -0.1
v 0.5 0.5 0.5
v 0.5 0.5 0.4
v 0.5 0.5 0.2
v 0.5 0.5 0.1
v 0.5 0.5 0
v 0.5 0.5 -0.1
v 0.5 0.5 -0.2
v 0.5 0.5 -0.3
v 0.5 0.6 0.4
v 0.5 0.6 0.3
v 0.5 0.6 0.2
v 0.5 0.6 0.1
v 0.5 0.6 -0.1
v 0.5 0.6 -0.2
v 0.5 0.7 0.5
v 0.5 0.7 0.4
v 0.5 0.7 0.3
v 0.5 0.7 0.2
v 0.5 0.7 0.1
v 0.5 0.7 -0.1
v 0.5 0.7 -0.2
v 0.5 0.7 -0.3
v 0.5 0.7 -0.4
v 0.5 0.7 -0.5
v 0.5 0.8 0.2
v 0.5 0.8 0.1
v 0.5 0.8 -0.3
v 0.5 0.8 -0.4
v 0.5 0.9 0.4
v 0.5 0.9 0.3
v 0.5 1 0.5
v 0.5 1 0.4
v 0.5 1 0.3
v 0.5 1 -0.5
v -0.5 0 0.5
v -0.5 0.4 0.5
v -0.5 0.5 0.5
v -0.5 0.8 0.5
v -0.5 1 0.5
v -0.4 0.4 0.5
v -0.4 0.5 0.5
v -0.4 0.7 0.5
v -0.4 0.8 0.5
v -0.3 0.2 0.5
v -0.3 0.3 0.5
v -0.3 0.7 0.5
v -0.3 0.8 0.5
v -0.3 0.9 0.5
v -0.3 1 0.5
v -0.2 0.3 0.5
v -0.2 0.4 0.5
v -0.2 0.7 0.5
v -0.2 0.8 0.5
v -0.2 0.9 0.5
v -0.2 1 0.5
v -0.1 0.2 0.5
v -0.1 0.4 0.5
v -0.1 0.6 0.5
v -0.1 0.7 0.5
v 0 0.8 0.5
v 0 0.9 0.5
v 0.1 0.4 0.5
v 0.1 0.5 0.5
v 0.1 0.6 0.5
v 0.1 0.7 0.5
v 0.1 0.8 0.5
v 0.1 0.9 0.5
v 0.1 1 0.5
v 0.2 0.2 0.5
v 0.2 0.4 0.5
v 0.2 0.5 0.5
v 0.2 0.7 0.5
v 0.2 0.8 0.5
v 0.2 0.9 0.5
v 0.2 1 0.5
v 0.3 0.2 0.5
v 0.3 0.4 0.5
v 0.3 0.5 0.5
v 0.3 0.6 0.5
v 0.4 0.4 0.5
v 0.4 0.5 0.5
v 0.4 0.6 0.5
v 0.4 0.7 0.5
v 0.4 0.8 0.5
v 0.5 0 0.5
v 0.5 0.4 0.5
v 0.5 0.5 0.5
v 0.5 0.7 0.5
v 0.5 1 0.5
v -0.5 0 -0.5
v -0.5 0.1 -0.5
v -0.5 0.3 -0.5
v -0.5 0.7 -0.5
v -0.5 1 -0.5
v -0.4 0.2 -0.5
v -0.4 0.3 -0.5
v -0.4 0.6 -0.5
v -0.4 0.7 -0.5
v -0.4 0.9 -0.5
v -0.4 1 -0.5
v -0.3 0.1 -0.5
v -0.3 0.2 -0.5
v -0.3 0.3 -0.5
v -0.3 0.4 -0.5
v -0.3 0.5 -0.5
v -0.3 0.6 -0.5
v -0.3 0.8 -0.5
v -0.3 0.9 -0.5
v -0.3 1 -0.5
v -0.2 0.4 -0.5
v -0.2 0.5 -0.5
v -0.2 0.6 -0.5
v -0.1 0.3 -0.5
v -0.1 0.5 -0.5
v -0.1 0.7 -0.5
v -0.1 0.8 -0.5
v 0.1 0 -0.5
v 0.1 0.1 -0.5
v 0.1 0.4 -0.5
v 0.1 0.5 -0.5
v 0.1 0.7 -0.5
v 0.1 0.8 -0.5
v 0.2 0 -0.5
v 0.2 0.1 -0.5
v 0.2 0.2 -0.5
v 0.2 0.4 -0.5
v 0.2 0.5 -0.5
v 0.2 0.6 -0.5
v 0.2 0.8 -0.5
v 0.3 0.1 -0.5
v 0.3 0.2 -0.5
v 0.3 0.3 -0.5
v 0.3 0.4 -0.5
v 0.3 0.5 -0.5
v 0.3 0.6 -0.5
v 0.3 0.8 -0.5
v 0.3 0.9 -0.5
v 0.3 1 -0.5
v 0.4 0.3 -0.5
v 0.4 0.4 -0.5
v 0.4 0.7 -0.5
v 0.4 0.8 -0.5
v 0.4 0.9 -0.5
v 0.4 1 -0.5
v 0.5 0 -0.5
v 0.5 0.7 -0.5
v 0.5 1 -0.5
v -0.5 0 0.5
v 0.5 0 0.5
v -0.5 0 0.2
v -0.4 0 0.2
v -0.5 0 0
v -0.4 0 0
v -0.5 0 -0.3
v -0.4 0 -0.3
v -0.5 0 -0.4
v -0.4 0 -0.4
v 0.1 0 -0.4
v 0.2 0 -0.4
v -0.5 0 -0.5
v 0.1 0 -0.5
v 0.2 0 -0.5
v 0.5 0 -0.5
v -0.5 1 0.5
v -0.3 1 0.5
v -0.2 1 0.5
v 0.1 1 0.5
v 0.2 1 0.5
v 0.5 1 0.5
v -0.5 1 0.4
v -0.4 1 0.4
v -0.3 1 0.4
v -0.2 1 0.4
v 0 1 0.4
v 0.1 1 0.4
v 0.4 1 0.4
v 0.5 1 0.4
v -0.5 1 0.3
v -0.4 1 0.3
v 0.1 1 0.3
v 0.2 1 0.3
v 0.3 1 0.3
v 0.4 1 0.3
v 0.5 1 0.3
v -0.3 1 0.2
v -0.2 1 0.2
v 0 1 0.2
v 0.1 1 0.2
v 0.2 1 0.2
v 0.3 1 0.2
v -0.4 1 0.1
v -0.3 1 0.1
v -0.2 1 0.1
v -0.3 1 0
v -0.2 1 0
v 0.3 1 0
v 0.4 1 0
v -0.4 1 -0.1
v -0.2 1 -0.1
v 0 1 -0.1
v 0.1 1 -0.1
v 0.2 1 -0.1
v 0.3 1 -0.1
v 0.4 1 -0.1
v 0.2 1 -0.2
v 0.3 1 -0.2
v -0.5 1 -0.3
v -0.4 1 -0.3
v -0.1 1 -0.3
v 0 1 -0.3
v 0.1 1 -0.3
v -0.5 1 -0.4
v -0.4 1 -0.4
v -0.3 1 -0.4
v -0.1 1 -0.4
v 0 1 -0.4
v 0.3 1 -0.4
v 0.4 1 -0.4
v -0.5 1 -0.5
v -0.4 1 -0.5
v -0.3 1 -0.5
v 0.3 1 -0.5
v 0.4 1 -0.5
v 0.5 1 -0.5

# faces
f 7/2/1 3/2/1 2/2/1
f 8/1/1 4/1/1 3/1/1
f 8/2/1 3/2/1 7/2/1
f 9/1/1 4/1/1 8/1/1
f 10/2/1 5/2/1 4/2/1
f 10/1/1 4/1/1 9/1/1
f 11/1/1 6/1/1 5/1/1
f 11/2/1 5/2/1 10/2/1
f 12/1/1 6/1/1 11/1/1
f 13/1/1 2/1/1 1/1/1
f 14/2/1 7/2/1 2/2/1
f 14/1/1 2/1/1 13/1/1
f 15/1/1 9/1/1 8/1/1
f 15/2/1 7/2/1 14/2/1
f 15/1/1 8/1/1 7/1/1
f 16/2/1 10/2/1 9/2/1
f 16/1/1 9/1/1 15/1/1
f 17/1/1 11/1/1 10/1/1
f 17/2/1 10/2/1 16/2/1
f 18/1/1 13/1/1 1/1/1
f 18/2/1 14/2/1 13/2/1
f 19/1/1 15/1/1 14/1/1
f 19/2/1 14/2/1 18/2/1
f 19/1/1 17/1/1 16/1/1
f 19/1/1 16/1/1 15/1/1
f 20/1/1 17/1/1 19/1/1
f 21/1/1 17/1/1 20/1/1
f 22/1/1 11/1/1 17/1/1
f 22/1/1 17/1/1 21/1/1
f 22/2/1 12/2/1 11/2/1
f 23/2/1 12/2/1 22/2/1
f 24/1/1 18/1/1 1/1/1
f 24/1/1 19/1/1 18/1/1
f 25/1/1 19/1/1 24/1/1
f 26/2/1 20/2/1 19/2/1
f 26/1/1 19/1/1 25/1/1
f 27/1/1 21/1/1 20/1/1
f 27/2/1 20/2/1 26/2/1
f 28/1/1 21/1/1 27/1/1
f 29/2/1 22/2/1 21/2/1
f 29/1/1 21/1/1 28/1/1
f 30/2/1 22/2/1 29/2/1
f 31/2/1 25/2/1 24/2/1
f 32/1/1 26/1/1 25/1/1
f 32/2/1 25/2/1 31/2/1
f 32/1/1 27/1/1 26/1/1
f 33/1/1 27/1/1 32/1/1
f 34/2/1 28/2/1 27/2/1
f 34/1/1 27/1/1 33/1/1
f 35/1/1 30/1/1 29/1/1
f 35/2/1 28/2/1 34/2/1
f 35/1/1 29/1/1 28/1/1
f 36/2/1 22/2/1 30/2/1
f 36/1/1 30/1/1 35/1/1
f 37/1/1 23/1/1 22/1/1
f 37/2/1 22/2/1 36/2/1
f 38/2/1 33/2/1 32/2/1
f 38/1/1 32/1/1 31/1/1
f 39/1/1 35/1/1 34/1/1
f 39/2/1 33/2/1 38/2/1
f 39/1/1 36/1/1 35/1/1
f 39/1/1 37/1/1 36/1/1
f 39/1/1 34/1/1 33/1/1
f 40/1/1 37/1/1 39/1/1
f 41/1/1 37/1/1 40/1/1
f 42/1/1 37/1/1 41/1/1
f 43/1/1 38/1/1 31/1/1
f 43/1/1 39/1/1 38/1/1
f 44/5/1 40/5/1 39/5/1
f 44/1/1 39/1/1 43/1/1
f 45/1/1 41/1/1 40/1/1
f 46/5/1 42/5/1 41/5/1
f 46/1/1 41/1/1 45/1/1
f 47/1/1 37/1/1 42/1/1
f 47/5/1 42/5/1 46/5/1
f 48/1/1 37/1/1 47/1/1
f 49/1/1 23/1/1 37/1/1
f 49/1/1 37/1/1 48/1/1
f 50/1/1 23/1/1 49/1/1
f 51/1/1 43/1/1 31/1/1
f 52/5/1 44/5/1 43/5/1
f 52/1/1 43/1/1 51/1/1
f 53/1/1 45/1/1 40/1/1
f 53/5/1 44/5/1 52/5/1
f 53/5/1 40/5/1 44/5/1
f 54/5/1 46/5/1 45/5/1
f 54/1/1 45/1/1 53/1/1
f 54/5/1 48/5/1 47/5/1
f 54/5/1 47/5/1 46/5/1
f 55/1/1 49/1/1 48/1/1
f 55/5/1 48/5/1 54/5/1
f 56/5/1 50/5/1 49/5/1
f 56/1/1 49/1/1 55/1/1
f 57/5/1 53/5/1 52/5/1
f 57/5/1 54/5/1 53/5/1
f 57/5/1 56/5/1 55/5/1
f 57/5/1 52/5/1 51/5/1
f 57/5/1 55/5/1 54/5/1
f 58/5/1 56/5/1 57/5/1
f 59/5/1 56/5/1 58/5/1
f 60/5/1 50/5/1 56/5/1
f 60/5/1 56/5/1 59/5/1
f 61/5/1 57/5/1 51/5/1
f 62/4/1 58/4/1 57/4/1
f 62/5/1 57/5/1 61/5/1
f 63/5/1 59/5/1 58/5/1
f 63/4/1 58/4/1 62/4/1
f 64/4/1 60/4/1 59/4/1
f 64/5/1 59/5/1 63/5/1
f 65/5/1 50/5/1 60/5/1
f 65/4/1 60/4/1 64/4/1
f 66/5/1 50/5/1 65/5/1
f 67/1/2 68/1/2 69/1/2
f 69/1/2 68/1/2 70/1/2
f 70/1/2 68/1/2 71/1/2
f 71/1/2 68/1/2 72/1/2
f 72/1/2 68/1/2 73/1/2
f 73/1/2 68/1/2 74/1/2
f 67/1/2 69/1/2 75/1/2
f 69/2/2 70/2/2 75/2/2
f 70/1/2 71/1/2 76/1/2
f 75/2/2 70/2/2 76/2/2
f 76/1/2 71/1/2 77/1/2
f 71/2/2 72/2/2 78/2/2
f 77/1/2 71/1/2 78/1/2
f 72/1/2 73/1/2 79/1/2
f 78/2/2 72/2/2 79/2/2
f 73/2/2 74/2/2 80/2/2
f 74/1/2 68/1/2 81/1/2
f 80/2/2 74/2/2 81/2/2
f 67/1/2 75/1/2 82/1/2
f 75/1/2 76/1/2 82/1/2
f 82/1/2 76/1/2 83/1/2
f 76/2/2 77/2/2 84/2/2
f 83/1/2 76/1/2 84/1/2
f 77/1/2 78/1/2 85/1/2
f 84/2/2 77/2/2 85/2/2
f 78/1/2 79/1/2 85/1/2
f 85/1/2 79/1/2 86/1/2
f 79/1/2 73/1/2 87/1/2
f 86/1/2 79/1/2 87/1/2
f 82/2/2 83/2/2 88/2/2
f 85/1/2 86/1/2 89/1/2
f 88/2/2 83/2/2 89/2/2
f 83/1/2 84/1/2 89/1/2
f 84/1/2 85/1/2 89/1/2
f 89/1/2 86/1/2 90/1/2
f 90/1/2 86/1/2 91/1/2
f 86/2/2 87/2/2 92/2/2
f 91/1/2 86/1/2 92/1/2
f 87/1/2 73/1/2 93/1/2
f 92/2/2 87/2/2 93/2/2
f 73/2/2 80/2/2 94/2/2
f 93/1/2 73/1/2 94/1/2
f 80/1/2 81/1/2 95/1/2
f 94/2/2 80/2/2 95/2/2
f 88/1/2 89/1/2 96/1/2
f 89/1/2 90/1/2 96/1/2
f 96/1/2 90/1/2 97/1/2
f 90/2/2 91/2/2 98/2/2
f 97/1/2 90/1/2 98/1/2
f 92/1/2 93/1/2 99/1/2
f 98/2/2 91/2/2 99/2/2
f 91/1/2 92/1/2 99/1/2
f 93/1/2 94/1/2 99/1/2
f 94/1/2 95/1/2 99/1/2
f 99/1/2 95/1/2 100/1/2
f 100/1/2 95/1/2 101/1/2
f 88/1/2 96/1/2 102/1/2
f 96/5/2 97/5/2 103/5/2
f 102/1/2 96/1/2 103/1/2
f 97/1/2 98/1/2 104/1/2
f 103/5/2 97/5/2 104/5/2
f 98/1/2 99/1/2 104/1/2
f 99/1/2 100/1/2 104/1/2
f 104/1/2 100/1/2 105/1/2
f 105/1/2 100/1/2 106/1/2
f 100/5/2 101/5/2 107/5/2
f 106/1/2 100/1/2 107/1/2
f 101/1/2 95/1/2 108/1/2
f 107/5/2 101/5/2 108/5/2
f 95/1/2 81/1/2 109/1/2
f 108/1/2 95/1/2 109/1/2
f 81/1/2 68/1/2 110/1/2
f 109/1/2 81/1/2 110/1/2
f 110/1/2 68/1/2 111/1/2
f 102/5/2 103/5/2 112/5/2
f 105/1/2 106/1/2 112/1/2
f 103/5/2 104/5/2 112/5/2
f 104/5/2 105/5/2 112/5/2
f 108/5/2 109/5/2 113/5/2
f 112/1/2 106/1/2 113/1/2
f 106/5/2 107/5/2 113/5/2
f 107/5/2 108/5/2 113/5/2
f 109/1/2 110/1/2 114/1/2
f 113/5/2 109/5/2 114/5/2
f 110/5/2 111/5/2 115/5/2
f 114/1/2 110/1/2 115/1/2
f 102/5/2 112/5/2 116/5/2
f 112/5/2 113/5/2 116/5/2
f 114/5/2 115/5/2 116/5/2
f 113/5/2 114/5/2 116/5/2
f 116/5/2 115/5/2 117/5/2
f 102/5/2 116/5/2 118/5/2
f 116/4/2 117/4/2 119/4/2
f 118/5/2 116/5/2 119/5/2
f 117/5/2 115/5/2 120/5/2
f 119/4/2 117/4/2 120/4/2
f 115/5/2 111/5/2 121/5/2
f 120/5/2 115/5/2 121/5/2
f 127/1/3 123/1/3 122/1/3
f 127/2/3 124/2/3 123/2/3
f 128/1/3 125/1/3 124/1/3
f 128/2/3 124/2/3 127/2/3
f 129/1/3 125/1/3 128/1/3
f 130/5/3 126/5/3 125/5/3
f 130/1/3 125/1/3 129/1/3
f 131/1/3 129/1/3 128/1/3
f 131/1/3 127/1/3 122/1/3
f 131/1/3 128/1/3 127/1/3
f 132/1/3 129/1/3 131/1/3
f 133/5/3 130/5/3 129/5/3
f 133/1/3 129/1/3 132/1/3
f 134/5/3 126/5/3 130/5/3
f 134/5/3 130/5/3 133/5/3
f 135/5/3 126/5/3 134/5/3
f 136/5/3 126/5/3 135/5/3
f 137/1/3 133/1/3 132/1/3
f 137/2/3 132/2/3 131/2/3
f 137/1/3 134/1/3 133/1/3
f 138/1/3 134/1/3 137/1/3
f 139/1/3 134/1/3 138/1/3
f 140/5/3 135/5/3 134/5/3
f 140/1/3 134/1/3 139/1/3
f 141/4/3 136/4/3 135/4/3
f 141/5/3 135/5/3 140/5/3
f 142/4/3 136/4/3 141/4/3
f 143/1/3 131/1/3 122/1/3
f 143/2/3 137/2/3 131/2/3
f 143/2/3 138/2/3 137/2/3
f 144/1/3 139/1/3 138/1/3
f 144/2/3 138/2/3 143/2/3
f 145/1/3 139/1/3 144/1/3
f 146/5/3 140/5/3 139/5/3
f 146/1/3 139/1/3 145/1/3
f 146/5/3 142/5/3 141/5/3
f 146/5/3 141/5/3 140/5/3
f 147/5/3 146/5/3 145/5/3
f 147/5/3 142/5/3 146/5/3
f 148/5/3 142/5/3 147/5/3
f 149/1/3 145/1/3 144/1/3
f 149/1/3 144/1/3 143/1/3
f 150/1/3 145/1/3 149/1/3
f 151/5/3 147/5/3 145/5/3
f 151/1/3 145/1/3 150/1/3
f 152/5/3 147/5/3 151/5/3
f 153/4/3 148/4/3 147/4/3
f 153/5/3 147/5/3 152/5/3
f 154/5/3 142/5/3 148/5/3
f 154/4/3 148/4/3 153/4/3
f 155/5/3 142/5/3 154/5/3
f 156/1/3 143/1/3 122/1/3
f 156/1/3 149/1/3 143/1/3
f 157/2/3 150/2/3 149/2/3
f 157/1/3 149/1/3 156/1/3
f 158/1/3 152/1/3 151/1/3
f 158/2/3 150/2/3 157/2/3
f 158/1/3 151/1/3 150/1/3
f 159/5/3 153/5/3 152/5/3
f 159/1/3 152/1/3 158/1/3
f 159/5/3 154/5/3 153/5/3
f 160/5/3 154/5/3 159/5/3
f 161/4/3 155/4/3 154/4/3
f 161/5/3 154/5/3 160/5/3
f 162/4/3 155/4/3 161/4/3
f 163/2/3 157/2/3 156/2/3
f 163/1/3 156/1/3 122/1/3
f 164/1/3 158/1/3 157/1/3
f 164/2/3 157/2/3 163/2/3
f 164/1/3 160/1/3 159/1/3
f 164/1/3 159/1/3 158/1/3
f 165/1/3 160/1/3 164/1/3
f 166/1/3 160/1/3 165/1/3
f 167/1/3 164/1/3 163/1/3
f 167/1/3 165/1/3 164/1/3
f 168/2/3 166/2/3 165/2/3
f 168/1/3 165/1/3 167/1/3
f 169/1/3 160/1/3 166/1/3
f 169/2/3 166/2/3 168/2/3
f 170/1/3 160/1/3 169/1/3
f 171/5/3 162/5/3 161/5/3
f 171/1/3 160/1/3 170/1/3
f 171/5/3 161/5/3 160/5/3
f 172/1/3 163/1/3 122/1/3
f 172/1/3 167/1/3 163/1/3
f 173/2/3 168/2/3 167/2/3
f 173/1/3 167/1/3 172/1/3
f 174/1/3 170/1/3 169/1/3
f 174/2/3 168/2/3 173/2/3
f 174/1/3 169/1/3 168/1/3
f 175/5/3 171/5/3 170/5/3
f 175/1/3 170/1/3 174/1/3
f 176/5/3 162/5/3 171/5/3
f 176/5/3 171/5/3 175/5/3
f 178/2/4 179/2/4 182/2/4
f 179/1/4 180/1/4 183/1/4
f 182/2/4 179/2/4 183/2/4
f 183/1/4 180/1/4 184/1/4
f 180/5/4 181/5/4 185/5/4
f 184/1/4 180/1/4 185/1/4
f 185/5/4 181/5/4 186/5/4
f 186/5/4 181/5/4 187/5/4
f 177/1/4 178/1/4 188/1/4
f 178/2/4 182/2/4 188/2/4
f 183/1/4 184/1/4 189/1/4
f 188/2/4 182/2/4 189/2/4
f 182/1/4 183/1/4 189/1/4
f 189/1/4 184/1/4 190/1/4
f 190/1/4 184/1/4 191/1/4
f 191/1/4 184/1/4 192/1/4
f 185/5/4 186/5/4 193/5/4
f 192/1/4 184/1/4 193/1/4
f 184/5/4 185/5/4 193/5/4
f 193/5/4 186/5/4 194/5/4
f 186/4/4 187/4/4 195/4/4
f 194/5/4 186/5/4 195/5/4
f 195/4/4 187/4/4 196/4/4
f 191/1/4 192/1/4 197/1/4
f 190/2/4 191/2/4 197/2/4
f 192/2/4 193/2/4 198/2/4
f 197/1/4 192/1/4 198/1/4
f 193/1/4 194/1/4 199/1/4
f 198/2/4 193/2/4 199/2/4
f 197/2/4 198/2/4 200/2/4
f 188/1/4 189/1/4 200/1/4
f 189/1/4 190/1/4 200/1/4
f 190/2/4 197/2/4 200/2/4
f 198/1/4 199/1/4 201/1/4
f 200/2/4 198/2/4 201/2/4
f 199/1/4 194/1/4 202/1/4
f 201/1/4 199/1/4 202/1/4
f 195/5/4 196/5/4 203/5/4
f 202/1/4 194/1/4 203/1/4
f 194/5/4 195/5/4 203/5/4
f 177/1/4 188/1/4 204/1/4
f 200/1/4 201/1/4 204/1/4
f 201/1/4 202/1/4 204/1/4
f 188/1/4 200/1/4 204/1/4
f 204/1/4 202/1/4 205/1/4
f 205/1/4 202/1/4 206/1/4
f 206/1/4 202/1/4 207/1/4
f 202/5/4 203/5/4 208/5/4
f 207/1/4 202/1/4 208/1/4
f 203/5/4 196/5/4 209/5/4
f 208/5/4 203/5/4 209/5/4
f 204/2/4 205/2/4 210/2/4
f 205/1/4 206/1/4 211/1/4
f 210/2/4 205/2/4 211/2/4
f 211/1/4 206/1/4 212/1/4
f 206/2/4 207/2/4 213/2/4
f 212/1/4 206/1/4 213/1/4
f 207/1/4 208/1/4 214/1/4
f 213/2/4 207/2/4 214/2/4
f 208/1/4 209/1/4 214/1/4
f 214/1/4 209/1/4 215/1/4
f 209/5/4 196/5/4 216/5/4
f 215/1/4 209/1/4 216/1/4
f 211/2/4 212/2/4 217/2/4
f 210/1/4 211/1/4 217/1/4
f 212/1/4 213/1/4 218/1/4
f 217/2/4 212/2/4 218/2/4
f 213/1/4 214/1/4 218/1/4
f 218/1/4 214/1/4 219/1/4
f 219/1/4 214/1/4 220/1/4
f 214/2/4 215/2/4 221/2/4
f 220/1/4 214/1/4 221/1/4
f 215/5/4 216/5/4 222/5/4
f 221/2/4 215/2/4 222/2/4
f 216/5/4 196/5/4 223/5/4
f 222/5/4 216/5/4 223/5/4
f 223/5/4 196/5/4 224/5/4
f 224/5/4 196/5/4 225/5/4
f 219/2/4 220/2/4 226/2/4
f 217/1/4 218/1/4 226/1/4
f 218/1/4 219/1/4 226/1/4
f 221/1/4 222/1/4 227/1/4
f 226/2/4 220/2/4 227/2/4
f 220/1/4 221/1/4 227/1/4
f 222/1/4 223/1/4 227/1/4
f 227/1/4 223/1/4 228/1/4
f 223/5/4 224/5/4 229/5/4
f 228/1/4 223/1/4 229/1/4
f 224/4/4 225/4/4 230/4/4
f 229/5/4 224/5/4 230/5/4
f 230/4/4 225/4/4 231/4/4
f 210/1/4 217/1/4 232/1/4
f 217/1/4 226/1/4 232/1/4
f 227/1/4 228/1/4 232/1/4
f 226/1/4 227/1/4 232/1/4
f 230/5/4 231/5/4 233/5/4
f 232/1/4 228/1/4 233/1/4
f 229/5/4 230/5/4 233/5/4
f 228/5/4 229/5/4 233/5/4
f 233/5/4 231/5/4 234/5/4
f 237/1/5 236/1/5 235/1/5
f 238/1/5 236/1/5 237/1/5
f 239/2/5 238/2/5 237/2/5
f 240/1/5 236/1/5 238/1/5
f 240/2/5 238/2/5 239/2/5
f 241/1/5 240/1/5 239/1/5
f 242/1/5 236/1/5 240/1/5
f 242/1/5 240/1/5 241/1/5
f 243/2/5 242/2/5 241/2/5
f 244/1/5 236/1/5 242/1/5
f 244/2/5 242/2/5 243/2/5
f 245/1/5 236/1/5 244/1/5
f 246/1/5 236/1/5 245/1/5
f 247/1/5 244/1/5 243/1/5
f 247/1/5 245/1/5 244/1/5
f 248/2/5 246/2/5 245/2/5
f 248/1/5 245/1/5 247/1/5
f 249/1/5 236/1/5 246/1/5
f 249/2/5 246/2/5 248/2/5
f 250/1/5 236/1/5 249/1/5
f 251/5/6 252/5/6 257/5/6
f 257/5/6 252/5/6 258/5/6
f 252/4/6 253/4/6 259/4/6
f 258/5/6 252/5/6 259/5/6
f 253/5/6 254/5/6 260/5/6
f 259/4/6 253/4/6 260/4/6
f 260/5/6 254/5/6 261/5/6
f 254/4/6 255/4/6 262/4/6
f 261/5/6 254/5/6 262/5/6
f 255/5/6 256/5/6 263/5/6
f 263/5/6 256/5/6 264/5/6
f 257/4/6 258/4/6 265/4/6
f 258/5/6 259/5/6 266/5/6
f 265/4/6 258/4/6 266/4/6
f 260/5/6 261/5/6 266/5/6
f 259/5/6 260/5/6 266/5/6
f 262/4/6 255/4/6 267/4/6
f 261/4/6 262/4/6 267/4/6
f 255/5/6 263/5/6 268/5/6
f 267/4/6 255/4/6 268/4/6
f 268/5/6 263/5/6 269/5/6
f 263/4/6 264/4/6 270/4/6
f 269/5/6 263/5/6 270/5/6
f 270/4/6 264/4/6 271/4/6
f 266/5/6 261/5/6 272/5/6
f 265/5/6 266/5/6 272/5/6
f 272/5/6 261/5/6 273/5/6
f 261/4/6 267/4/6 274/4/6
f 273/5/6 261/5/6 274/5/6
f 267/5/6 268/5/6 275/5/6
f 274/4/6 267/4/6 275/4/6
f 268/4/6 269/4/6 276/4/6
f 275/5/6 268/5/6 276/5/6
f 270/5/6 271/5/6 277/5/6
f 276/4/6 269/4/6 277/4/6
f 269/5/6 270/5/6 277/5/6
f 265/5/6 272/5/6 278/5/6
f 272/4/6 273/4/6 279/4/6
f 278/5/6 272/5/6 279/5/6
f 274/5/6 275/5/6 280/5/6
f 279/4/6 273/4/6 280/4/6
f 275/5/6 276/5/6 280/5/6
f 276/5/6 277/5/6 280/5/6
f 273/5/6 274/5/6 280/5/6
f 278/4/6 279/4/6 281/4/6
f 279/5/6 280/5/6 281/5/6
f 280/5/6 277/5/6 282/5/6
f 281/5/6 280/5/6 282/5/6
f 277/5/6 271/5/6 283/5/6
f 282/5/6 277/5/6 283/5/6
f 283/5/6 271/5/6 284/5/6
f 278/4/6 281/4/6 285/4/6
f 265/5/6 278/5/6 285/5/6
f 281/4/6 282/4/6 285/4/6
f 282/5/6 283/5/6 286/5/6
f 285/4/6 282/4/6 286/4/6
f 286/5/6 283/5/6 287/5/6
f 287/5/6 283/5/6 288/5/6
f 288/5/6 283/5/6 289/5/6
f 283/4/6 284/4/6 290/4/6
f 289/5/6 283/5/6 290/5/6
f 284/5/6 271/5/6 291/5/6
f 290/4/6 284/4/6 291/4/6
f 289/4/6 290/4/6 292/4/6
f 288/5/6 289/5/6 292/5/6
f 290/5/6 291/5/6 293/5/6
f 292/4/6 290/4/6 293/4/6
f 265/5/6 285/5/6 294/5/6
f 285/5/6 286/5/6 294/5/6
f 286/5/6 287/5/6 294/5/6
f 294/5/6 287/5/6 295/5/6
f 295/5/6 287/5/6 296/5/6
f 287/4/6 288/4/6 297/4/6
f 296/5/6 287/5/6 297/5/6
f 288/5/6 292/5/6 298/5/6
f 297/4/6 288/4/6 298/4/6
f 292/5/6 293/5/6 298/5/6
f 294/4/6 295/4/6 299/4/6
f 295/5/6 296/5/6 300/5/6
f 299/4/6 295/4/6 300/4/6
f 300/5/6 296/5/6 301/5/6
f 296/4/6 297/4/6 302/4/6
f 301/5/6 296/5/6 302/5/6
f 297/5/6 298/5/6 303/5/6
f 302/4/6 297/4/6 303/4/6
f 293/5/6 291/5/6 304/5/6
f 303/5/6 298/5/6 304/5/6
f 298/5/6 293/5/6 304/5/6
f 291/5/6 271/5/6 305/5/6
f 304/5/6 291/5/6 305/5/6
f 299/5/6 300/5/6 306/5/6
f 300/4/6 301/4/6 307/4/6
f 306/5/6 300/5/6 307/5/6
f 303/5/6 304/5/6 308/5/6
f 307/4/6 301/4/6 308/4/6
f 302/5/6 303/5/6 308/5/6
f 301/5/6 302/5/6 308/5/6
f 304/4/6 305/4/6 309/4/6
f 308/5/6 304/5/6 309/5/6
f 305/5/6 271/5/6 310/5/6
f 309/4/6 305/4/6 310/4/6
f 310/5/6 271/5/6 311/5/6
